<svg width="184" height="70" viewBox="0 0 184 70" fill="none" xmlns="http://www.w3.org/2000/svg">
<rect x="34.5" y="0.499603" width="15" height="15" rx="3.5" fill="#18181B" stroke="#27272A"/>
<rect x="54.5" y="0.499603" width="15" height="15" rx="3.5" fill="#14532D" stroke="#15803D"/>
<rect x="74.5" y="0.499603" width="15" height="15" rx="3.5" fill="#166534" stroke="#16A34A"/>
<rect x="94.5" y="0.499603" width="15" height="15" rx="3.5" fill="#15803D" stroke="#22C55E"/>
<rect x="114.5" y="0.499603" width="15" height="15" rx="3.5" fill="#16A34A" stroke="#4ADE80"/>
<rect x="134.5" y="0.499603" width="15" height="15" rx="3.5" fill="#22C55E" stroke="#86EFAC"/>
<path d="M2.64205 68.9992V34.0901H17.0625C19.6761 34.0901 21.9318 34.5617 23.8295 35.5049C25.7386 36.4367 27.2102 37.7776 28.2443 39.5276C29.2784 41.2663 29.7955 43.3288 29.7955 45.7151C29.7955 48.1356 29.267 50.1924 28.2102 51.8856C27.1534 53.5674 25.6534 54.8515 23.7102 55.7378C21.767 56.6128 19.4659 57.0503 16.8068 57.0503H7.6875V50.4026H15.2386C16.5114 50.4026 17.5739 50.2378 18.4261 49.9083C19.2898 49.5674 19.9432 49.056 20.3864 48.3742C20.8295 47.681 21.0511 46.7947 21.0511 45.7151C21.0511 44.6356 20.8295 43.7435 20.3864 43.039C19.9432 42.3231 19.2898 41.789 18.4261 41.4367C17.5625 41.0731 16.5 40.8913 15.2386 40.8913H11.0795V68.9992H2.64205ZM22.2955 53.0447L30.9886 68.9992H21.7841L13.2614 53.0447H22.2955ZM46.1293 69.4935C43.3793 69.4935 41.0156 68.931 39.0384 67.806C37.0724 66.6697 35.5554 65.0901 34.4872 63.0674C33.4304 61.0333 32.902 58.6753 32.902 55.9935C32.902 53.3003 33.4304 50.9424 34.4872 48.9197C35.5554 46.8856 37.0724 45.306 39.0384 44.181C41.0156 43.0447 43.3793 42.4765 46.1293 42.4765C48.8793 42.4765 51.2372 43.0447 53.2031 44.181C55.1804 45.306 56.6974 46.8856 57.7543 48.9197C58.8224 50.9424 59.3565 53.3003 59.3565 55.9935C59.3565 58.6753 58.8224 61.0333 57.7543 63.0674C56.6974 65.0901 55.1804 66.6697 53.2031 67.806C51.2372 68.931 48.8793 69.4935 46.1293 69.4935ZM46.1804 63.2038C47.1804 63.2038 48.027 62.8969 48.7202 62.2833C49.4134 61.6697 49.9418 60.8174 50.3054 59.7265C50.6804 58.6356 50.8679 57.3742 50.8679 55.9424C50.8679 54.4878 50.6804 53.2151 50.3054 52.1242C49.9418 51.0333 49.4134 50.181 48.7202 49.5674C48.027 48.9538 47.1804 48.6469 46.1804 48.6469C45.1463 48.6469 44.2713 48.9538 43.5554 49.5674C42.8509 50.181 42.3111 51.0333 41.9361 52.1242C41.5724 53.2151 41.3906 54.4878 41.3906 55.9424C41.3906 57.3742 41.5724 58.6356 41.9361 59.7265C42.3111 60.8174 42.8509 61.6697 43.5554 62.2833C44.2713 62.8969 45.1463 63.2038 46.1804 63.2038ZM80.5185 57.6981V42.8174H88.8366V68.9992H80.8935V64.1242H80.6207C80.0412 65.7265 79.0526 66.9992 77.6548 67.9424C76.2685 68.8742 74.5923 69.3401 72.6264 69.3401C70.8423 69.3401 69.2741 68.931 67.9219 68.1128C66.5696 67.2947 65.5185 66.1526 64.7685 64.6867C64.0185 63.2094 63.6378 61.4822 63.6264 59.5049V42.8174H71.9616V57.8685C71.973 59.289 72.348 60.4083 73.0866 61.2265C73.8253 62.0447 74.831 62.4538 76.1037 62.4538C76.9332 62.4538 77.6776 62.2719 78.3366 61.9083C79.0071 61.5333 79.5355 60.9935 79.9219 60.289C80.3196 59.5731 80.5185 58.7094 80.5185 57.6981ZM108.92 42.8174V48.9538H92.4034V42.8174H108.92ZM95.8636 36.5447H104.199V60.7663C104.199 61.2776 104.278 61.6924 104.438 62.0106C104.608 62.3174 104.852 62.539 105.17 62.6753C105.489 62.8003 105.869 62.8628 106.312 62.8628C106.631 62.8628 106.966 62.8344 107.318 62.7776C107.682 62.7094 107.955 62.6526 108.136 62.6072L109.398 68.6242C109 68.7378 108.438 68.8799 107.71 69.0503C106.994 69.2208 106.136 69.3288 105.136 69.3742C103.182 69.4651 101.506 69.2378 100.108 68.6924C98.7216 68.1356 97.6591 67.2719 96.9205 66.1015C96.1932 64.931 95.8409 63.4594 95.8636 61.6867V36.5447ZM113.173 68.9992V42.8174H121.509V68.9992H113.173ZM117.349 39.7663C116.179 39.7663 115.173 39.3799 114.332 38.6072C113.491 37.8231 113.071 36.8799 113.071 35.7776C113.071 34.6867 113.491 33.7549 114.332 32.9822C115.173 32.1981 116.179 31.806 117.349 31.806C118.531 31.806 119.537 32.1981 120.366 32.9822C121.207 33.7549 121.628 34.6867 121.628 35.7776C121.628 36.8799 121.207 37.8231 120.366 38.6072C119.537 39.3799 118.531 39.7663 117.349 39.7663ZM135.149 54.0674V68.9992H126.814V42.8174H134.74V47.6242H135.03C135.609 46.0219 136.598 44.7663 137.996 43.8572C139.393 42.9367 141.058 42.4765 142.99 42.4765C144.831 42.4765 146.428 42.8913 147.78 43.7208C149.143 44.539 150.2 45.6867 150.95 47.164C151.712 48.6299 152.087 50.3458 152.075 52.3117V68.9992H143.74V53.9481C143.751 52.4935 143.382 51.3572 142.632 50.539C141.893 49.7208 140.865 49.3117 139.547 49.3117C138.672 49.3117 137.899 49.5049 137.229 49.8913C136.57 50.2663 136.058 50.806 135.695 51.5106C135.342 52.2151 135.161 53.0674 135.149 54.0674ZM169.474 69.4935C166.736 69.4935 164.372 68.9538 162.384 67.8742C160.406 66.7833 158.884 65.2322 157.815 63.2208C156.759 61.1981 156.23 58.7947 156.23 56.0106C156.23 53.306 156.764 50.9424 157.832 48.9197C158.901 46.8856 160.406 45.306 162.349 44.181C164.293 43.0447 166.582 42.4765 169.219 42.4765C171.082 42.4765 172.787 42.7663 174.332 43.3458C175.878 43.9253 177.213 44.7833 178.338 45.9197C179.463 47.056 180.338 48.4594 180.963 50.1299C181.588 51.789 181.901 53.6924 181.901 55.8401V57.9197H159.145V53.0788H174.145C174.134 52.1924 173.923 51.4026 173.514 50.7094C173.105 50.0163 172.543 49.4765 171.827 49.0901C171.122 48.6924 170.31 48.4935 169.389 48.4935C168.457 48.4935 167.622 48.7038 166.884 49.1242C166.145 49.5333 165.56 50.0958 165.128 50.8117C164.696 51.5163 164.469 52.3174 164.446 53.2151V58.1413C164.446 59.2094 164.656 60.1469 165.077 60.9538C165.497 61.7492 166.094 62.3685 166.866 62.8117C167.639 63.2549 168.56 63.4765 169.628 63.4765C170.366 63.4765 171.037 63.3742 171.639 63.1697C172.241 62.9651 172.759 62.664 173.19 62.2663C173.622 61.8685 173.946 61.3799 174.162 60.8003L181.815 61.0219C181.497 62.7378 180.798 64.2322 179.719 65.5049C178.651 66.7663 177.247 67.7492 175.509 68.4538C173.77 69.1469 171.759 69.4935 169.474 69.4935Z" fill="white"/>
</svg>
