<svg width="184" height="70" viewBox="0 0 184 70" fill="none" xmlns="http://www.w3.org/2000/svg">
<rect x="0.5" y="0.499603" width="15" height="15" rx="7.5" fill="#18181B" stroke="#27272A"/>
<rect x="20.5" y="0.499603" width="15" height="15" rx="7.5" fill="#7F1D1D" stroke="#B91C1C"/>
<rect x="40.5" y="0.499603" width="15" height="15" rx="7.5" fill="#991B1B" stroke="#DC2626"/>
<rect x="60.5" y="0.499603" width="15" height="15" rx="7.5" fill="#B91C1C" stroke="#EF4444"/>
<rect x="80.5" y="0.499603" width="15" height="15" rx="7.5" fill="#DC2626" stroke="#F87171"/>
<rect x="100.5" y="0.499603" width="15" height="15" rx="7.5" fill="#EF4444" stroke="#FCA5A5"/>
<path d="M2.64205 69V34.0909H17.0625C19.6761 34.0909 21.9318 34.5625 23.8295 35.5057C25.7386 36.4375 27.2102 37.7784 28.2443 39.5284C29.2784 41.267 29.7955 43.3295 29.7955 45.7159C29.7955 48.1364 29.267 50.1932 28.2102 51.8864C27.1534 53.5682 25.6534 54.8523 23.7102 55.7386C21.767 56.6136 19.4659 57.0511 16.8068 57.0511H7.6875V50.4034H15.2386C16.5114 50.4034 17.5739 50.2386 18.4261 49.9091C19.2898 49.5682 19.9432 49.0568 20.3864 48.375C20.8295 47.6818 21.0511 46.7955 21.0511 45.7159C21.0511 44.6364 20.8295 43.7443 20.3864 43.0398C19.9432 42.3239 19.2898 41.7898 18.4261 41.4375C17.5625 41.0739 16.5 40.892 15.2386 40.892H11.0795V69H2.64205ZM22.2955 53.0455L30.9886 69H21.7841L13.2614 53.0455H22.2955ZM46.1293 69.4943C43.3793 69.4943 41.0156 68.9318 39.0384 67.8068C37.0724 66.6705 35.5554 65.0909 34.4872 63.0682C33.4304 61.0341 32.902 58.6761 32.902 55.9943C32.902 53.3011 33.4304 50.9432 34.4872 48.9205C35.5554 46.8864 37.0724 45.3068 39.0384 44.1818C41.0156 43.0455 43.3793 42.4773 46.1293 42.4773C48.8793 42.4773 51.2372 43.0455 53.2031 44.1818C55.1804 45.3068 56.6974 46.8864 57.7543 48.9205C58.8224 50.9432 59.3565 53.3011 59.3565 55.9943C59.3565 58.6761 58.8224 61.0341 57.7543 63.0682C56.6974 65.0909 55.1804 66.6705 53.2031 67.8068C51.2372 68.9318 48.8793 69.4943 46.1293 69.4943ZM46.1804 63.2045C47.1804 63.2045 48.027 62.8977 48.7202 62.2841C49.4134 61.6705 49.9418 60.8182 50.3054 59.7273C50.6804 58.6364 50.8679 57.375 50.8679 55.9432C50.8679 54.4886 50.6804 53.2159 50.3054 52.125C49.9418 51.0341 49.4134 50.1818 48.7202 49.5682C48.027 48.9545 47.1804 48.6477 46.1804 48.6477C45.1463 48.6477 44.2713 48.9545 43.5554 49.5682C42.8509 50.1818 42.3111 51.0341 41.9361 52.125C41.5724 53.2159 41.3906 54.4886 41.3906 55.9432C41.3906 57.375 41.5724 58.6364 41.9361 59.7273C42.3111 60.8182 42.8509 61.6705 43.5554 62.2841C44.2713 62.8977 45.1463 63.2045 46.1804 63.2045ZM80.5185 57.6989V42.8182H88.8366V69H80.8935V64.125H80.6207C80.0412 65.7273 79.0526 67 77.6548 67.9432C76.2685 68.875 74.5923 69.3409 72.6264 69.3409C70.8423 69.3409 69.2741 68.9318 67.9219 68.1136C66.5696 67.2955 65.5185 66.1534 64.7685 64.6875C64.0185 63.2102 63.6378 61.483 63.6264 59.5057V42.8182H71.9616V57.8693C71.973 59.2898 72.348 60.4091 73.0866 61.2273C73.8253 62.0455 74.831 62.4545 76.1037 62.4545C76.9332 62.4545 77.6776 62.2727 78.3366 61.9091C79.0071 61.5341 79.5355 60.9943 79.9219 60.2898C80.3196 59.5739 80.5185 58.7102 80.5185 57.6989ZM108.92 42.8182V48.9545H92.4034V42.8182H108.92ZM95.8636 36.5455H104.199V60.767C104.199 61.2784 104.278 61.6932 104.438 62.0114C104.608 62.3182 104.852 62.5398 105.17 62.6761C105.489 62.8011 105.869 62.8636 106.312 62.8636C106.631 62.8636 106.966 62.8352 107.318 62.7784C107.682 62.7102 107.955 62.6534 108.136 62.608L109.398 68.625C109 68.7386 108.438 68.8807 107.71 69.0511C106.994 69.2216 106.136 69.3295 105.136 69.375C103.182 69.4659 101.506 69.2386 100.108 68.6932C98.7216 68.1364 97.6591 67.2727 96.9205 66.1023C96.1932 64.9318 95.8409 63.4602 95.8636 61.6875V36.5455ZM113.173 69V42.8182H121.509V69H113.173ZM117.349 39.767C116.179 39.767 115.173 39.3807 114.332 38.608C113.491 37.8239 113.071 36.8807 113.071 35.7784C113.071 34.6875 113.491 33.7557 114.332 32.983C115.173 32.1989 116.179 31.8068 117.349 31.8068C118.531 31.8068 119.537 32.1989 120.366 32.983C121.207 33.7557 121.628 34.6875 121.628 35.7784C121.628 36.8807 121.207 37.8239 120.366 38.608C119.537 39.3807 118.531 39.767 117.349 39.767ZM135.149 54.0682V69H126.814V42.8182H134.74V47.625H135.03C135.609 46.0227 136.598 44.767 137.996 43.858C139.393 42.9375 141.058 42.4773 142.99 42.4773C144.831 42.4773 146.428 42.892 147.78 43.7216C149.143 44.5398 150.2 45.6875 150.95 47.1648C151.712 48.6307 152.087 50.3466 152.075 52.3125V69H143.74V53.9489C143.751 52.4943 143.382 51.358 142.632 50.5398C141.893 49.7216 140.865 49.3125 139.547 49.3125C138.672 49.3125 137.899 49.5057 137.229 49.892C136.57 50.267 136.058 50.8068 135.695 51.5114C135.342 52.2159 135.161 53.0682 135.149 54.0682ZM169.474 69.4943C166.736 69.4943 164.372 68.9545 162.384 67.875C160.406 66.7841 158.884 65.233 157.815 63.2216C156.759 61.1989 156.23 58.7955 156.23 56.0114C156.23 53.3068 156.764 50.9432 157.832 48.9205C158.901 46.8864 160.406 45.3068 162.349 44.1818C164.293 43.0455 166.582 42.4773 169.219 42.4773C171.082 42.4773 172.787 42.767 174.332 43.3466C175.878 43.9261 177.213 44.7841 178.338 45.9205C179.463 47.0568 180.338 48.4602 180.963 50.1307C181.588 51.7898 181.901 53.6932 181.901 55.8409V57.9205H159.145V53.0795H174.145C174.134 52.1932 173.923 51.4034 173.514 50.7102C173.105 50.017 172.543 49.4773 171.827 49.0909C171.122 48.6932 170.31 48.4943 169.389 48.4943C168.457 48.4943 167.622 48.7045 166.884 49.125C166.145 49.5341 165.56 50.0966 165.128 50.8125C164.696 51.517 164.469 52.3182 164.446 53.2159V58.142C164.446 59.2102 164.656 60.1477 165.077 60.9545C165.497 61.75 166.094 62.3693 166.866 62.8125C167.639 63.2557 168.56 63.4773 169.628 63.4773C170.366 63.4773 171.037 63.375 171.639 63.1705C172.241 62.9659 172.759 62.6648 173.19 62.267C173.622 61.8693 173.946 61.3807 174.162 60.8011L181.815 61.0227C181.497 62.7386 180.798 64.233 179.719 65.5057C178.651 66.767 177.247 67.75 175.509 68.4545C173.77 69.1477 171.759 69.4943 169.474 69.4943Z" fill="white"/>
</svg>
